<?xml version="1.0" standalone="no"?><!DOCTYPE svg PUBLIC "-//W3C//DTD SVG 1.1//EN" "http://www.w3.org/Graphics/SVG/1.1/DTD/svg11.dtd"><svg width="100%" height="100%" viewBox="0 0 372 116" version="1.1" xmlns="http://www.w3.org/2000/svg" xmlns:xlink="http://www.w3.org/1999/xlink" xml:space="preserve" style="fill-rule:evenodd;clip-rule:evenodd;stroke-linejoin:round;stroke-miterlimit:1.41421;"><g transform="matrix(1,0,0,1,-235.919,-243.995)"><path d="M393.376,307.42l5.179,0l0,-14.602l14.203,0l0,-4.594l-14.203,0l0,-10.078l16.641,0l0,-4.898l-21.82,0l0,34.172Z" style="fill:#808080;fill-rule:nonzero;"/><path d="M422.132,295.841c0.031,3.594 1.219,6.446 3.562,8.555c2.297,2.172 5.157,3.274 8.579,3.305c3.484,-0.031 6.367,-1.133 8.648,-3.305c2.266,-2.109 3.43,-4.961 3.492,-8.555l0,-22.593l-5.18,0l0,22.031c-0.031,2.328 -0.687,4.101 -1.968,5.32c-1.313,1.281 -2.977,1.922 -4.992,1.922c-2.016,0 -3.665,-0.641 -4.946,-1.922c-1.312,-1.219 -1.984,-2.992 -2.015,-5.32l0,-22.031l-5.18,0l0,22.593Z" style="fill:#808080;fill-rule:nonzero;"/><path d="M456.006,307.42l21.82,0l0,-4.899l-16.641,0l0,-29.273l-5.179,0l0,34.172Z" style="fill:#808080;fill-rule:nonzero;"/><path d="M502.661,297.857c-1.438,3.109 -3.61,4.664 -6.516,4.664c-1.219,0 -2.265,-0.258 -3.14,-0.773c-0.891,-0.438 -1.61,-1.008 -2.157,-1.711c-0.672,-0.735 -1.117,-1.696 -1.336,-2.883c-0.25,-1.188 -0.375,-3.461 -0.375,-6.82c0,-3.36 0.125,-5.649 0.375,-6.868c0.219,-1.156 0.664,-2.101 1.336,-2.836c0.547,-0.703 1.266,-1.289 2.157,-1.757c0.875,-0.453 1.921,-0.696 3.14,-0.727c1.656,0.031 3.063,0.508 4.219,1.43c1.109,0.969 1.875,2.14 2.297,3.515l5.484,0c-0.547,-2.859 -1.859,-5.257 -3.937,-7.195c-2.078,-1.922 -4.766,-2.898 -8.063,-2.93c-2.687,0.032 -4.929,0.672 -6.726,1.922c-1.828,1.235 -3.157,2.641 -3.985,4.219c-0.515,0.828 -0.898,1.914 -1.148,3.258c-0.235,1.344 -0.352,4 -0.352,7.969c0,3.906 0.117,6.546 0.352,7.921c0.125,0.735 0.281,1.344 0.469,1.829c0.203,0.468 0.429,0.961 0.679,1.476c0.828,1.578 2.157,2.969 3.985,4.172c1.797,1.25 4.039,1.906 6.726,1.969c2.969,0 5.539,-0.844 7.711,-2.531c2.11,-1.704 3.539,-4.141 4.289,-7.313l-5.484,0Z" style="fill:#808080;fill-rule:nonzero;"/><path d="M518.785,277.865l8.109,0c1.657,0 2.922,0.351 3.797,1.055c1.11,0.796 1.68,2.085 1.711,3.867c0,1.484 -0.476,2.734 -1.429,3.75c-0.969,1.093 -2.422,1.656 -4.36,1.687l-7.828,0l0,-10.359ZM513.605,307.42l5.18,0l0,-14.602l6.609,0l7.055,14.602l6.164,0l-7.922,-15.165c4.344,-1.671 6.547,-4.828 6.61,-9.468c-0.094,-3.157 -1.227,-5.586 -3.399,-7.289c-1.797,-1.5 -4.117,-2.25 -6.961,-2.25l-13.336,0l0,34.172Z" style="fill:#808080;fill-rule:nonzero;"/><path d="M544.05,295.841c0.031,3.594 1.219,6.446 3.562,8.555c2.297,2.172 5.157,3.274 8.579,3.305c3.484,-0.031 6.367,-1.133 8.648,-3.305c2.266,-2.109 3.43,-4.961 3.492,-8.555l0,-22.593l-5.18,0l0,22.031c-0.031,2.328 -0.687,4.101 -1.968,5.32c-1.313,1.281 -2.977,1.922 -4.992,1.922c-2.016,0 -3.665,-0.641 -4.946,-1.922c-1.312,-1.219 -1.984,-2.992 -2.015,-5.32l0,-22.031l-5.18,0l0,22.593Z" style="fill:#808080;fill-rule:nonzero;"/><path d="M577.924,307.42l5.179,0l0,-21.305l0.094,0l7.149,16.406l4.312,0l7.148,-16.406l0.118,0l0,21.305l5.179,0l0,-34.172l-4.898,0l-9.609,22.265l-9.797,-22.265l-4.875,0l0,34.172Z" style="fill:#808080;fill-rule:nonzero;"/><g transform="matrix(1.03,0,0,1,-11.7545,0)"><path d="M399.163,324.542l3.481,0l0,0.891c-0.016,1.07 -0.352,1.933 -1.008,2.589c-0.657,0.688 -1.489,1.032 -2.496,1.032c-0.61,0 -1.133,-0.129 -1.571,-0.387c-0.445,-0.219 -0.804,-0.504 -1.078,-0.855c-0.336,-0.368 -0.558,-0.848 -0.668,-1.442c-0.125,-0.594 -0.187,-1.73 -0.187,-3.41c0,-1.68 0.062,-2.824 0.187,-3.434c0.11,-0.578 0.332,-1.05 0.668,-1.418c0.274,-0.351 0.633,-0.644 1.078,-0.878c0.438,-0.227 0.961,-0.348 1.571,-0.364c0.828,0.016 1.531,0.254 2.109,0.715c0.555,0.484 0.937,1.07 1.148,1.758l2.743,0c-0.274,-1.43 -0.93,-2.629 -1.969,-3.598c-1.039,-0.961 -2.383,-1.449 -4.031,-1.465c-1.344,0.016 -2.465,0.336 -3.364,0.961c-0.914,0.618 -1.578,1.321 -1.992,2.11c-0.258,0.414 -0.449,0.957 -0.574,1.629c-0.117,0.671 -0.176,2 -0.176,3.984c0,1.953 0.059,3.273 0.176,3.961c0.062,0.367 0.141,0.672 0.234,0.914c0.102,0.234 0.215,0.48 0.34,0.738c0.414,0.789 1.078,1.485 1.992,2.086c0.899,0.625 2.02,0.953 3.364,0.985c1.742,-0.032 3.187,-0.622 4.336,-1.77c1.14,-1.156 1.726,-2.59 1.757,-4.301l0,-3.48l-6.07,0l0,2.449Z" style="fill:#808080;fill-rule:nonzero;"/><path d="M422.443,331.503l10.91,0l0,-2.449l-8.32,0l0,-5.016l7.101,0l0,-2.297l-7.101,0l0,-4.875l8.32,0l0,-2.449l-10.91,0l0,17.086Z" style="fill:#808080;fill-rule:nonzero;"/><path d="M449.977,331.503l2.59,0l0,-12.141l0.047,0l7.722,12.141l2.449,0l0,-17.086l-2.589,0l0,12.141l-0.047,0l-7.735,-12.141l-2.437,0l0,17.086Z" style="fill:#808080;fill-rule:nonzero;"/><path d="M479.995,322.96c0,1.953 0.059,3.273 0.176,3.961c0.062,0.367 0.141,0.672 0.234,0.914c0.102,0.234 0.215,0.48 0.34,0.738c0.414,0.789 1.078,1.485 1.992,2.086c0.899,0.625 2.02,0.953 3.364,0.985c1.359,-0.032 2.492,-0.36 3.398,-0.985c0.898,-0.601 1.547,-1.297 1.945,-2.086c0.289,-0.414 0.489,-0.965 0.598,-1.652c0.102,-0.688 0.152,-2.008 0.152,-3.961c0,-1.984 -0.05,-3.313 -0.152,-3.984c-0.109,-0.672 -0.309,-1.215 -0.598,-1.629c-0.398,-0.789 -1.047,-1.492 -1.945,-2.11c-0.906,-0.625 -2.039,-0.945 -3.398,-0.961c-1.344,0.016 -2.465,0.336 -3.364,0.961c-0.914,0.618 -1.578,1.321 -1.992,2.11c-0.258,0.414 -0.449,0.957 -0.574,1.629c-0.117,0.671 -0.176,2 -0.176,3.984ZM482.597,322.96c0,-1.68 0.062,-2.824 0.187,-3.434c0.11,-0.578 0.332,-1.05 0.668,-1.418c0.274,-0.351 0.633,-0.644 1.078,-0.878c0.438,-0.227 0.961,-0.348 1.571,-0.364c0.617,0.016 1.152,0.137 1.605,0.364c0.43,0.234 0.773,0.527 1.031,0.878c0.336,0.368 0.567,0.84 0.692,1.418c0.117,0.61 0.175,1.754 0.175,3.434c0,1.68 -0.058,2.816 -0.175,3.41c-0.125,0.594 -0.356,1.074 -0.692,1.442c-0.258,0.351 -0.601,0.636 -1.031,0.855c-0.453,0.258 -0.988,0.387 -1.605,0.387c-0.61,0 -1.133,-0.129 -1.571,-0.387c-0.445,-0.219 -0.804,-0.504 -1.078,-0.855c-0.336,-0.368 -0.558,-0.848 -0.668,-1.442c-0.125,-0.594 -0.187,-1.73 -0.187,-3.41Z" style="fill:#808080;fill-rule:nonzero;"/><path d="M509.404,331.503l2.59,0l0,-10.652l0.047,0l3.574,8.203l2.156,0l3.574,-8.203l0.059,0l0,10.652l2.59,0l0,-17.086l-2.449,0l-4.805,11.133l-4.899,-11.133l-2.437,0l0,17.086Z" style="fill:#808080;fill-rule:nonzero;"/><rect x="541.778" y="314.417" width="2.59" height="17.086" style="fill:#808080;fill-rule:nonzero;"/><path d="M570.929,326.722c-0.719,1.554 -1.805,2.332 -3.258,2.332c-0.609,0 -1.133,-0.129 -1.57,-0.387c-0.446,-0.219 -0.805,-0.504 -1.079,-0.855c-0.335,-0.368 -0.558,-0.848 -0.667,-1.442c-0.125,-0.594 -0.188,-1.73 -0.188,-3.41c0,-1.68 0.063,-2.824 0.188,-3.434c0.109,-0.578 0.332,-1.05 0.667,-1.418c0.274,-0.351 0.633,-0.644 1.079,-0.878c0.437,-0.227 0.961,-0.348 1.57,-0.364c0.828,0.016 1.531,0.254 2.109,0.715c0.555,0.484 0.938,1.07 1.149,1.758l2.742,0c-0.274,-1.43 -0.93,-2.629 -1.969,-3.598c-1.039,-0.961 -2.383,-1.449 -4.031,-1.465c-1.344,0.016 -2.465,0.336 -3.363,0.961c-0.914,0.618 -1.578,1.321 -1.993,2.11c-0.257,0.414 -0.449,0.957 -0.574,1.629c-0.117,0.671 -0.176,2 -0.176,3.984c0,1.953 0.059,3.273 0.176,3.961c0.063,0.367 0.141,0.672 0.235,0.914c0.101,0.234 0.214,0.48 0.339,0.738c0.415,0.789 1.079,1.485 1.993,2.086c0.898,0.625 2.019,0.953 3.363,0.985c1.484,0 2.769,-0.422 3.855,-1.266c1.055,-0.852 1.77,-2.07 2.145,-3.656l-2.742,0Z" style="fill:#808080;fill-rule:nonzero;"/><path d="M589.896,327.355l-1.699,1.945c1.82,1.562 3.996,2.344 6.527,2.344c3.914,-0.047 5.914,-1.704 6,-4.969c0,-1.211 -0.379,-2.274 -1.136,-3.188c-0.766,-0.929 -1.95,-1.504 -3.551,-1.722c-0.813,-0.102 -1.453,-0.192 -1.922,-0.27c-0.844,-0.156 -1.457,-0.437 -1.84,-0.844c-0.383,-0.398 -0.574,-0.843 -0.574,-1.336c0.016,-0.82 0.301,-1.437 0.855,-1.851c0.532,-0.399 1.196,-0.598 1.993,-0.598c1.539,0.031 2.949,0.469 4.23,1.313l1.441,-2.133c-1.57,-1.133 -3.418,-1.723 -5.543,-1.77c-1.765,0.016 -3.128,0.477 -4.089,1.383c-0.993,0.914 -1.489,2.117 -1.489,3.61c0,1.242 0.395,2.296 1.184,3.164c0.766,0.843 1.883,1.386 3.351,1.629c0.821,0.117 1.575,0.222 2.262,0.316c1.5,0.258 2.242,1.023 2.227,2.297c-0.031,1.555 -1.156,2.347 -3.375,2.379c-1.875,-0.016 -3.492,-0.582 -4.852,-1.699Z" style="fill:#808080;fill-rule:nonzero;"/></g></g><g><path d="M76.952,44.087l-36.758,0l0,20.096l36.758,0l0,6.835c0,5.054 0.444,13.262 -4.711,13.262l-32.047,0l0,27.228l8.588,0c7.379,0 14.051,-0.913 20.014,-2.738c5.965,-1.827 11.027,-4.493 15.189,-8.002c4.161,-3.508 7.379,-7.751 9.653,-12.727c0.554,-1.213 1.041,-2.466 1.46,-3.761c1.3,-4.023 1.95,-8.442 1.95,-13.262l0,-6.835l0,-20.096l-20.096,0Z" style="fill:url(#_Radial1);fill-rule:nonzero;"/><path d="M48.267,3.893c-7.551,0 -14.309,0.895 -20.271,2.685c-5.964,1.79 -11.027,4.421 -15.189,7.894c-4.161,3.472 -7.336,7.715 -9.524,12.726c-2.188,5.013 -3.283,10.741 -3.283,17.185l0,19.8l20.097,0l0,-19.8l0,-0.296l0.002,0c0.024,-2.966 0.41,-6.117 1.602,-8.847c0.928,-2.125 2.202,-3.853 3.982,-5.337c2.327,-1.943 5.208,-3.212 8.09,-4.077c4.631,-1.39 9.678,-1.836 14.494,-1.836l48.781,0l0,-20.097l-48.781,0ZM0,84.28l0,27.228l20.097,0l0,-20.097l0,-7.131l-20.097,0Z" style="fill:url(#_Radial2);fill-rule:nonzero;"/></g><rect x="126.609" y="0" width="1.54" height="115.401" style="fill:#808080;"/><defs><radialGradient id="_Radial1" cx="0" cy="0" r="1" gradientUnits="userSpaceOnUse" gradientTransform="matrix(61.8034,0,0,61.8034,70.3269,34.6471)"><stop offset="0%" style="stop-color:#d2e288;stop-opacity:1"/><stop offset="18%" style="stop-color:#a4cd38;stop-opacity:1"/><stop offset="100%" style="stop-color:#0e5737;stop-opacity:1"/></radialGradient><radialGradient id="_Radial2" cx="0" cy="0" r="1" gradientUnits="userSpaceOnUse" gradientTransform="matrix(115.46,0,0,115.46,15.5286,25.4161)"><stop offset="0%" style="stop-color:#00aeef;stop-opacity:1"/><stop offset="62%" style="stop-color:#184d7f;stop-opacity:1"/><stop offset="100%" style="stop-color:#171936;stop-opacity:1"/></radialGradient></defs></svg>